<?xml version="1.0" standalone="no"?>
<!DOCTYPE svg PUBLIC "-//W3C//DTD SVG 20010904//EN"
 "http://www.w3.org/TR/2001/REC-SVG-20010904/DTD/svg10.dtd">
<svg version="1.0" xmlns="http://www.w3.org/2000/svg"
 width="397.000000pt" height="312.000000pt" viewBox="0 0 397.000000 312.000000"
 preserveAspectRatio="xMidYMid meet">
<metadata>
Created by potrace 1.15, written by Peter Selinger 2001-2017
</metadata>
<g transform="translate(0.000000,312.000000) scale(0.100000,-0.100000)"
fill="#000000" stroke="none">
<path d="M1222 2102 l-992 -2 0 -47 0 -46 1083 6 c595 4 1385 7 1755 7 l672 0
0 46 0 45 -762 -3 c-420 -2 -1210 -4 -1756 -6z"/>
<path d="M293 1840 c-63 -38 -68 -61 -68 -295 0 -190 2 -214 20 -250 27 -53
73 -78 144 -78 105 0 152 51 159 176 l4 67 -40 0 -39 0 -5 -72 c-5 -59 -10
-75 -28 -90 -32 -26 -76 -23 -105 7 -25 24 -25 24 -25 235 0 211 0 211 25 235
29 30 73 33 106 6 19 -15 24 -30 27 -85 l4 -66 41 0 40 0 -5 68 c-9 122 -48
162 -160 162 -45 0 -72 -6 -95 -20z"/>
<path d="M683 1841 c-63 -40 -68 -62 -68 -301 0 -234 5 -260 60 -296 62 -41
175 -36 224 9 45 42 54 81 59 252 5 197 -6 262 -53 314 -32 35 -36 36 -112 39
-64 2 -84 0 -110 -17z m140 -50 c39 -15 47 -58 47 -251 0 -105 -5 -190 -11
-209 -19 -54 -92 -69 -134 -26 -25 24 -25 24 -25 235 0 211 0 211 25 235 25
26 57 31 98 16z"/>
<path d="M1020 1540 l0 -322 108 4 c127 5 161 19 194 81 22 39 23 54 23 237 0
175 -2 199 -20 235 -32 62 -71 79 -197 84 l-108 3 0 -322z m216 229 c17 -19
19 -39 19 -230 0 -200 -1 -209 -22 -230 -14 -15 -38 -23 -72 -27 l-51 -5 0
257 0 256 53 0 c42 0 58 -5 73 -21z"/>
<path d="M1420 1540 l0 -320 125 0 125 0 0 30 0 30 -80 0 -80 0 0 120 0 120
65 0 65 0 0 30 0 30 -65 0 -65 0 0 105 0 104 78 3 77 3 3 33 3 32 -125 0 -126
0 0 -320z"/>
<path d="M1720 1540 l0 -320 125 0 125 0 0 30 0 30 -80 0 -80 0 0 290 0 290
-45 0 -45 0 0 -320z"/>
<path d="M2020 1540 l0 -320 125 0 125 0 0 30 0 30 -80 0 -80 0 0 120 0 120
65 0 65 0 0 30 0 30 -65 0 -65 0 0 105 0 104 78 3 77 3 3 33 3 32 -125 0 -126
0 0 -320z"/>
<path d="M2383 1840 c-63 -38 -68 -61 -68 -295 0 -190 2 -214 20 -249 29 -58
63 -79 130 -80 53 0 59 2 90 36 l34 36 3 -31 c2 -27 8 -33 31 -35 l27 -3 0
160 0 161 -80 0 -80 0 0 -30 c0 -28 2 -30 41 -30 l41 0 -4 -76 c-3 -69 -6 -79
-31 -100 -34 -29 -76 -31 -108 -5 -24 19 -24 22 -27 235 l-3 216 25 25 c31 31
74 33 110 4 22 -17 26 -28 26 -70 l0 -49 40 0 40 0 0 45 c0 62 -22 111 -62
135 -45 28 -150 28 -195 0z"/>
<path d="M2820 1853 c0 -4 -29 -143 -65 -310 -36 -167 -65 -307 -65 -313 0 -5
17 -10 39 -10 l38 0 12 63 c20 103 15 97 86 97 72 0 63 11 85 -102 l11 -58 41
0 c37 0 40 2 35 23 -3 12 -34 156 -68 320 l-63 297 -43 0 c-24 0 -43 -3 -43
-7z m94 -378 l7 -35 -56 0 c-56 0 -57 0 -51 28 3 15 15 81 28 147 l22 120 22
-113 c12 -62 25 -128 28 -147z"/>
<path d="M3153 1840 c-63 -38 -68 -61 -68 -295 0 -190 2 -214 20 -250 27 -53
73 -78 144 -78 105 0 152 51 159 176 l4 67 -40 0 -39 0 -5 -72 c-5 -59 -10
-75 -28 -90 -32 -26 -76 -23 -105 7 -25 24 -25 24 -25 235 0 211 0 211 25 235
29 30 73 33 106 6 19 -15 24 -30 27 -85 l4 -66 41 0 40 0 -5 68 c-9 122 -48
162 -160 162 -45 0 -72 -6 -95 -20z"/>
<path d="M3511 1653 l69 -207 0 -113 0 -113 40 0 40 0 0 113 0 113 69 207 70
208 -42 -3 -41 -3 -45 -147 c-25 -82 -48 -148 -51 -148 -3 0 -26 66 -51 148
l-46 147 -41 3 -41 3 70 -208z"/>
<path d="M1222 1082 l-992 -2 0 -47 0 -46 1083 6 c595 4 1385 7 1755 7 l672 0
0 46 0 45 -762 -3 c-420 -2 -1210 -4 -1756 -6z"/>
</g>
</svg>
